<svg version="1.2" baseProfile="tiny-ps" xmlns="http://www.w3.org/2000/svg" viewBox="0 0 1000 822" width="1000" height="822">
	<title>IntelVAS-svg</title>
	<style>
		tspan { white-space:pre }
		.shp0 { fill: #00aae8 } 
		.shp1 { fill: #000000 } 
	</style>
	<path id="rect4" class="shp0" d="M1 52.88L79.71 52.88L79.71 131.59L1 131.59L1 52.88Z" />
	<path id="VAS" fill="#000000" aria-label="VAS"  d="M335.2 552.95L385.95 552.95Q375.45 571.85 301.25 771L259.25 771Q243.15 725.15 222.85 671.25Q202.9 617 178.4 552.95L225.65 552.95Q228.45 565.9 282.35 710.1L335.2 552.95ZM609.25 771L558.5 771Q538.2 714.3 538.2 714.3L469.6 714.3Q465.05 725.5 459.8 739.85Q454.9 753.85 448.95 771L401.7 771Q409.4 753.85 430.05 698.9Q450.7 643.6 485.35 549.45L524.9 549.45Q535.75 579.2 545.2 605.1Q555 630.65 563.05 652.7Q602.6 758.75 609.25 771ZM483.6 672.3L526.65 672.3Q521.4 657.25 516.15 642.55Q510.9 627.85 505.65 613.15Q483.95 673.7 483.6 672.3ZM717.4 775.2Q710.75 774.85 702 773.1Q693.6 771.35 682.75 768.55Q676.8 766.8 670.5 765.4Q664.55 763.65 658.25 761.9Q646.35 758.75 643.2 759.45L643.2 703.1L667.35 703.1Q668.75 712.2 676.8 718.85Q695 733.9 724.75 733.9Q747.5 733.9 752.4 715.35Q753.1 712.55 753.1 710.8Q753.1 701.7 742.95 692.6Q735.6 685.95 726.15 682.1Q704.45 673.7 691.15 668.1Q678.2 662.15 673.3 659.35Q648.45 643.25 648.1 616.3Q647.4 582 671.55 564.5Q691.5 549.45 725.8 548.75Q729.65 548.4 734.2 549.1Q738.75 549.8 744.7 551.2Q749.6 552.6 754.15 553.65Q758.7 554.7 763.25 555.75Q781.1 559.6 785.65 558.55L785.65 611.75L762.2 611.75Q760.45 601.6 756.25 598.1Q752.4 594.6 748.9 591.45Q742.6 587.25 730.7 586.55Q701.3 585.15 693.25 600.55Q690.8 605.45 690.8 610.7Q690.8 630.65 725.45 639.4Q758 647.1 777.6 665.3Q800 684.55 800 711.5Q800 743.7 773.75 760.85Q750.3 776.6 717.4 775.2Z" />
	<g id="g10">
		<path id="path6" fill-rule="evenodd" class="shp1" d="M1.24 430.97L1.24 147.49L75.75 147.49L75.75 430.97L1.24 430.97ZM561.18 433.77C538.5 433.77 519.45 431.81 504.32 427.61C489.48 423.4 477.15 416.68 467.91 407.16C458.66 397.63 451.94 385.03 448.02 369.62C444.1 353.94 442.14 334.33 442.14 311.08L442.14 36.85L516.93 36.85L516.93 147.49L570.99 147.49L570.99 211.36L516.93 211.36L516.93 310.52C516.93 321.72 517.49 330.97 518.61 337.97C520.01 345.25 522.53 350.85 526.45 354.78C530.37 358.7 536.25 361.5 544.1 362.62C550.82 363.74 560.06 364.3 570.99 364.3L570.99 433.77L561.18 433.77ZM924.21 430.97L924.21 15L999 15L999 430.97L924.21 430.97ZM401.24 269.9L401.24 430.69L325.89 430.69L325.89 280.27C325.89 257.02 320.29 238.81 309.64 225.92C298.72 213.04 282.19 206.32 260.62 206.32C242.42 206.32 226.45 213.04 213.29 226.48C200.96 239.09 194.52 258.7 193.68 285.31L193.68 430.97L119.45 430.97L119.45 147.49L193.12 147.49L193.12 188.11L197.32 182.79C207.12 169.9 219.73 159.82 234.29 152.54C249.14 145.25 265.39 141.61 283.31 141.61C320.29 141.61 349.42 152.82 370.15 175.22C390.88 197.63 401.52 229.57 401.24 269.9ZM885.55 315.28L662.87 315.28L663.71 317.8C668.47 334.33 677.43 347.77 690.6 357.3C703.76 367.1 721.13 371.86 742.14 371.86C775.75 371.86 802.64 353.66 813.85 340.21L867.63 381.11C844.1 408 804.88 436.85 741.58 436.85C719.73 436.85 699.28 432.93 680.79 425.08C662.31 417.52 646.34 406.88 633.45 393.71C620.57 380.55 610.2 364.86 602.92 346.93C595.64 329.01 592 309.68 592 289.23C592 268.78 595.64 249.45 603.48 231.53C611.04 213.6 621.69 197.91 634.85 184.75C648.02 171.58 663.71 161.22 681.63 153.38C699.56 145.81 718.89 141.89 739.34 141.89C760.9 141.89 780.79 145.53 798.72 153.1C816.65 160.66 832.05 171.02 844.94 184.47C857.54 197.91 867.63 213.6 874.91 231.25C881.91 249.17 885.55 268.22 885.55 288.67L885.55 315.28ZM813.85 262.34C813.85 241.61 789.76 205.48 738.5 205.48C687.24 205.76 663.43 241.89 663.43 262.62L813.85 262.34Z" />
	</g>
</svg>