<?xml version="1.0"?>
<svg width="1000" height="822" xmlns="http://www.w3.org/2000/svg" xmlns:svg="http://www.w3.org/2000/svg" version="1.2">
 <title>IntelVAS-svg</title>
 <style>tspan { white-space:pre }
		.shp0 { fill: #00aae8 } 
		.shp1 { fill: #000000 }</style>
 <g class="layer">
  <title>Layer 1</title>
  <path class="shp0" d="m1,52.88l78.71,0l0,78.71l-78.71,0l0,-78.71z" id="rect4"/>
  <g id="g10" transform="matrix(1 0 0 1 0 0)">
   <path class="shp1" d="m1.24,430.97l0,-283.48l74.51,0l0,283.48l-74.51,0zm559.94,2.8c-22.68,0 -41.73,-1.96 -56.86,-6.16c-14.84,-4.21 -27.17,-10.93 -36.41,-20.45c-9.25,-9.53 -15.97,-22.13 -19.89,-37.54c-3.92,-15.68 -5.88,-35.29 -5.88,-58.54l0,-274.23l74.79,0l0,110.64l54.06,0l0,63.87l-54.06,0l0,99.16c0,11.2 0.56,20.45 1.68,27.45c1.4,7.28 3.92,12.88 7.84,16.81c3.92,3.92 9.8,6.72 17.65,7.84c6.72,1.12 15.96,1.68 26.89,1.68l0,69.47l-9.81,0zm363.03,-2.8l0,-415.97l74.79,0l0,415.97l-74.79,0zm-522.97,-161.07l0,160.79l-75.35,0l0,-150.42c0,-23.25 -5.6,-41.46 -16.25,-54.35c-10.92,-12.88 -27.45,-19.6 -49.02,-19.6c-18.2,0 -34.17,6.72 -47.33,20.16c-12.33,12.61 -18.77,32.22 -19.61,58.83l0,145.66l-74.23,0l0,-283.48l73.67,0l0,40.62l4.2,-5.32c9.8,-12.89 22.41,-22.97 36.97,-30.25c14.85,-7.29 31.1,-10.93 49.02,-10.93c36.98,0 66.11,11.21 86.84,33.61c20.73,22.41 31.37,54.35 31.09,94.68zm484.31,45.38l-222.68,0l0.84,2.52c4.76,16.53 13.72,29.97 26.89,39.5c13.16,9.8 30.53,14.56 51.54,14.56c33.61,0 60.5,-18.2 71.71,-31.65l53.78,40.9c-23.53,26.89 -62.75,55.74 -126.05,55.74c-21.85,0 -42.3,-3.92 -60.79,-11.77c-18.48,-7.56 -34.45,-18.2 -47.34,-31.37c-12.88,-13.16 -23.25,-28.85 -30.53,-46.78c-7.28,-17.92 -10.92,-37.25 -10.92,-57.7c0,-20.45 3.64,-39.78 11.48,-57.7c7.56,-17.93 18.21,-33.62 31.37,-46.78c13.17,-13.17 28.86,-23.53 46.78,-31.37c17.93,-7.57 37.26,-11.49 57.71,-11.49c21.56,0 41.45,3.64 59.38,11.21c17.93,7.56 33.33,17.92 46.22,31.37c12.6,13.44 22.69,29.13 29.97,46.78c7,17.92 10.64,36.97 10.64,57.42l0,26.61zm-71.7,-52.94c0,-20.73 -24.09,-56.86 -75.35,-56.86c-51.26,0.28 -75.07,36.41 -75.07,57.14l150.42,-0.28z" fill-rule="evenodd" id="path6"/>
  </g>
  <text fill="#000000" font-family="Helvetica" font-size="300" font-weight="bold" id="svg_1" stroke-width="0" text-anchor="middle" x="491.2" xml:space="preserve" y="747.8">EVAM</text>
 </g>
</svg>